<svg width="123" height="45" viewBox="0 0 123 45" fill="none" xmlns="http://www.w3.org/2000/svg">
<rect x="1" y="1" width="121" height="43" rx="6" stroke="white" stroke-width="2"/>
<path d="M19.7554 34.9999C19.0246 34.9999 18.3238 34.6827 17.807 34.118C17.2903 33.5534 17 32.7875 17 31.9889V13.0005C17.0017 12.4608 17.1362 11.9314 17.3893 11.4679C17.6425 11.0044 18.005 10.6238 18.4389 10.3659C18.8729 10.108 19.3623 9.98231 19.8559 10.002C20.3495 10.0217 20.8292 10.186 21.2448 10.4778L34.7488 19.9991C35.133 20.2727 35.4486 20.6466 35.6671 21.0872C35.8856 21.5277 36 22.0208 36 22.5219C36 23.0229 35.8856 23.5161 35.6671 23.9566C35.4486 24.3971 35.133 24.7711 34.7488 25.0446L21.2448 34.5388C20.7983 34.8435 20.2818 35.0034 19.7554 34.9999ZM21.9647 17.4221V27.5674L29.1635 22.4947L21.9647 17.4221Z" fill="white"/>
<path d="M41.8807 15.3636H45.3636L48.3182 22.5682H48.4545L51.4091 15.3636H54.892V27H52.1534V19.8523H52.0568L49.2614 26.9261H47.5114L44.7159 19.8125H44.6193V27H41.8807V15.3636ZM60.7202 27.1648C59.8035 27.1648 59.0156 26.9773 58.3565 26.6023C57.7012 26.2235 57.1955 25.697 56.8395 25.0227C56.4872 24.3447 56.3111 23.5587 56.3111 22.6648C56.3111 21.767 56.4872 20.9811 56.8395 20.3068C57.1955 19.6288 57.7012 19.1023 58.3565 18.7273C59.0156 18.3485 59.8035 18.1591 60.7202 18.1591C61.6368 18.1591 62.4228 18.3485 63.0781 18.7273C63.7372 19.1023 64.2429 19.6288 64.5952 20.3068C64.9512 20.9811 65.1293 21.767 65.1293 22.6648C65.1293 23.5587 64.9512 24.3447 64.5952 25.0227C64.2429 25.697 63.7372 26.2235 63.0781 26.6023C62.4228 26.9773 61.6368 27.1648 60.7202 27.1648ZM60.7372 25.0682C61.0705 25.0682 61.3527 24.9659 61.5838 24.7614C61.8149 24.5568 61.991 24.2727 62.1122 23.9091C62.2372 23.5455 62.2997 23.125 62.2997 22.6477C62.2997 22.1629 62.2372 21.7386 62.1122 21.375C61.991 21.0114 61.8149 20.7273 61.5838 20.5227C61.3527 20.3182 61.0705 20.2159 60.7372 20.2159C60.3925 20.2159 60.1009 20.3182 59.8622 20.5227C59.6274 20.7273 59.4474 21.0114 59.3224 21.375C59.2012 21.7386 59.1406 22.1629 59.1406 22.6477C59.1406 23.125 59.2012 23.5455 59.3224 23.9091C59.4474 24.2727 59.6274 24.5568 59.8622 24.7614C60.1009 24.9659 60.3925 25.0682 60.7372 25.0682ZM74.7372 18.2727L71.7429 27H68.5611L65.5724 18.2727H68.4986L70.1065 24.2841H70.1974L71.8111 18.2727H74.7372ZM75.8026 27V18.2727H78.581V27H75.8026ZM77.1946 17.2557C76.8045 17.2557 76.4692 17.1269 76.1889 16.8693C75.9086 16.608 75.7685 16.2936 75.7685 15.9261C75.7685 15.5625 75.9086 15.2519 76.1889 14.9943C76.4692 14.733 76.8045 14.6023 77.1946 14.6023C77.5885 14.6023 77.9238 14.733 78.2003 14.9943C78.4806 15.2519 78.6207 15.5625 78.6207 15.9261C78.6207 16.2936 78.4806 16.608 78.2003 16.8693C77.9238 17.1269 77.5885 17.2557 77.1946 17.2557ZM84.429 27.1648C83.5161 27.1648 82.7282 26.9848 82.0653 26.625C81.4063 26.2614 80.8987 25.7443 80.5426 25.0739C80.1903 24.3996 80.0142 23.5985 80.0142 22.6705C80.0142 21.7689 80.1922 20.9811 80.5483 20.3068C80.9044 19.6288 81.4062 19.1023 82.054 18.7273C82.7017 18.3485 83.465 18.1591 84.3438 18.1591C84.965 18.1591 85.5331 18.2557 86.0483 18.4489C86.5634 18.642 87.0085 18.928 87.3835 19.3068C87.7585 19.6856 88.0502 20.1534 88.2585 20.7102C88.4669 21.2633 88.571 21.8977 88.571 22.6136V23.3068H80.9858V21.6932H85.9858C85.982 21.3977 85.9119 21.1345 85.7756 20.9034C85.6392 20.6723 85.4517 20.4924 85.2131 20.3636C84.9782 20.2311 84.7074 20.1648 84.4006 20.1648C84.09 20.1648 83.8116 20.2348 83.5653 20.375C83.3191 20.5114 83.1241 20.6989 82.9801 20.9375C82.8362 21.1723 82.7604 21.4394 82.7528 21.7386V23.3807C82.7528 23.7367 82.8229 24.0492 82.9631 24.3182C83.1032 24.5833 83.3021 24.7898 83.5597 24.9375C83.8172 25.0852 84.1241 25.1591 84.4801 25.1591C84.7263 25.1591 84.9498 25.125 85.1506 25.0568C85.3513 24.9886 85.5237 24.8883 85.6676 24.7557C85.8116 24.6231 85.9195 24.4602 85.9915 24.267L88.5426 24.3409C88.4366 24.9129 88.2036 25.411 87.8438 25.8352C87.4877 26.2557 87.0199 26.5833 86.4403 26.8182C85.8608 27.0492 85.1903 27.1648 84.429 27.1648ZM100.553 19.5795H97.7116C97.6738 19.2879 97.5961 19.0246 97.4787 18.7898C97.3613 18.5549 97.206 18.3542 97.0128 18.1875C96.8196 18.0208 96.5904 17.8939 96.3253 17.8068C96.0639 17.7159 95.7741 17.6705 95.456 17.6705C94.8916 17.6705 94.4048 17.8087 93.9957 18.0852C93.5904 18.3617 93.2779 18.7614 93.0582 19.2841C92.8423 19.8068 92.7344 20.4394 92.7344 21.1818C92.7344 21.9545 92.8442 22.6023 93.0639 23.125C93.2874 23.6439 93.5999 24.036 94.0014 24.3011C94.4067 24.5625 94.8859 24.6932 95.4389 24.6932C95.7495 24.6932 96.0317 24.6534 96.2855 24.5739C96.5431 24.4943 96.7685 24.3788 96.9616 24.2273C97.1586 24.072 97.3196 23.8845 97.4446 23.6648C97.5734 23.4413 97.6624 23.1894 97.7116 22.9091L100.553 22.9261C100.503 23.4413 100.354 23.9489 100.104 24.4489C99.8575 24.9489 99.5185 25.4053 99.0866 25.8182C98.6548 26.2273 98.1283 26.553 97.5071 26.7955C96.8897 27.0379 96.1813 27.1591 95.3821 27.1591C94.3291 27.1591 93.3859 26.928 92.5526 26.4659C91.723 26 91.0677 25.322 90.5866 24.4318C90.1056 23.5417 89.8651 22.4583 89.8651 21.1818C89.8651 19.9015 90.1094 18.8163 90.598 17.9261C91.0866 17.036 91.7476 16.3598 92.581 15.8977C93.4143 15.4356 94.348 15.2045 95.3821 15.2045C96.0866 15.2045 96.7382 15.303 97.3366 15.5C97.9351 15.6932 98.4616 15.9773 98.9162 16.3523C99.3707 16.7235 99.7401 17.1799 100.024 17.7216C100.308 18.2633 100.484 18.8826 100.553 19.5795Z" fill="white"/>
</svg>
